<?xml version="1.0" encoding="utf-8"?>
<!-- Generator: Adobe Illustrator 19.0.0, SVG Export Plug-In . SVG Version: 6.00 Build 0)  -->
<svg version="1.1"
	 id="svg2" xmlns:dc="http://purl.org/dc/elements/1.1/" xmlns:cc="http://creativecommons.org/ns#" xmlns:rdf="http://www.w3.org/1999/02/22-rdf-syntax-ns#" xmlns:svg="http://www.w3.org/2000/svg" xmlns:sodipodi="http://sodipodi.sourceforge.net/DTD/sodipodi-0.dtd" xmlns:inkscape="http://www.inkscape.org/namespaces/inkscape" inkscape:version="0.91 r13725" sodipodi:docname="icons.svg"
	 xmlns="http://www.w3.org/2000/svg" xmlns:xlink="http://www.w3.org/1999/xlink" x="0px" y="0px" viewBox="-193 345.5 225 102.5"
	 style="enable-background:new -193 345.5 225 102.5;" xml:space="preserve">
<style type="text/css">
	.st0{fill:#9A9DA0;}
	.st1{fill:#B3B6B9;}
	.st2{fill:#4EC4AC;}
</style>
<sodipodi:namedview  inkscape:cy="-7.7085782" inkscape:cx="93.571168" inkscape:zoom="3.2561405" showgrid="false" guidetolerance="10" gridtolerance="10" objecttolerance="10" borderopacity="1" pagecolor="#000000" bordercolor="#666666" id="namedview4" inkscape:current-layer="g10" inkscape:window-maximized="1" inkscape:window-y="26" inkscape:window-x="0" inkscape:window-width="1600" inkscape:window-height="1148" inkscape:pageshadow="2" inkscape:pageopacity="0">
	</sodipodi:namedview>
<path class="st0" d="M-156.9,404.5c0.2-0.4,0.7-0.7,1.2-0.7s0.9,0.3,1.2,0.7l4.2,8.6c0.2,0.4,0.6,0.7,1,0.7l9.3,1.4
	c0.5,0.1,0.9,0.4,1,0.9c0.2,0.5,0,1-0.3,1.3l-6.8,6.7c-0.3,0.3-0.4,0.7-0.4,1.2l1.6,9.4c0.1,0.5-0.1,1-0.5,1.3s-0.9,0.3-1.4,0.1
	l-8.4-4.4c-0.4-0.2-0.8-0.2-1.2,0l-8.4,4.4c-0.4,0.2-1,0.2-1.4-0.1s-0.6-0.8-0.5-1.3l1.6-9.4c0.1-0.4-0.1-0.9-0.4-1.2l-6.8-6.7
	c-0.4-0.3-0.5-0.9-0.3-1.3c0.2-0.5,0.6-0.8,1-0.9l9.3-1.4c0.4-0.1,0.8-0.3,1-0.7C-161.1,413.1-156.9,404.5-156.9,404.5z"/>
<path class="st1" d="M-81.9,404.5c0.2-0.5,0.7-0.7,1.2-0.7s0.9,0.3,1.2,0.7l4.2,8.6c0.2,0.4,0.6,0.7,1,0.7l9.4,1.4
	c0.5,0.1,0.9,0.4,1,0.9c0.2,0.5,0,1-0.3,1.3l-6.8,6.7c-0.3,0.3-0.4,0.7-0.4,1.2l1.6,9.4c0.1,0.5-0.1,1-0.5,1.3s-0.9,0.3-1.4,0.1
	l-8.4-4.5c-0.4-0.2-0.8-0.2-1.2,0l-8.4,4.5c-0.4,0.2-1,0.2-1.4-0.1s-0.6-0.8-0.5-1.3l1.6-9.4c0.1-0.4-0.1-0.9-0.4-1.2l-6.8-6.7
	c-0.4-0.3-0.5-0.9-0.3-1.3s0.6-0.8,1.1-0.9l9.3-1.4c0.4-0.1,0.8-0.3,1-0.7C-86.1,413.1-81.9,404.5-81.9,404.5z"/>
<path class="st2" d="M-6.9,404.5c0.2-0.5,0.7-0.7,1.2-0.7s0.9,0.3,1.2,0.7l4.2,8.6c0.2,0.4,0.6,0.7,1,0.7l9.4,1.4
	c0.5,0.1,0.9,0.4,1.1,0.9c0.1,0.5,0,1-0.3,1.3l-6.8,6.7c-0.3,0.3-0.4,0.7-0.4,1.2l1.6,9.4c0.1,0.5-0.1,1-0.5,1.3s-0.9,0.3-1.4,0.1
	l-8.4-4.5c-0.4-0.2-0.8-0.2-1.2,0l-8.4,4.5c-0.4,0.2-1,0.2-1.4-0.1s-0.6-0.8-0.5-1.3l1.6-9.4c0.1-0.4-0.1-0.9-0.4-1.2l-6.8-6.7
	c-0.4-0.3-0.5-0.9-0.3-1.3c0.2-0.5,0.6-0.8,1.1-0.9l9.4-1.4c0.4-0.1,0.8-0.3,1-0.7C-11.1,413.1-6.9,404.5-6.9,404.5z"/>
<g>
	<path class="st0" d="M-141.9,357.4l-19.3-0.1c-1.9,0-3.3,1.5-3.3,3.3v1.8l14.8-0.1c2.5,0,4.5,2,4.5,4.5v12c0,0.3-0.1,0.7-0.1,1
		l2,2.2c0.1,0.1,0.3,0.2,0.4,0.2s0.1,0,0.2-0.1c0.2-0.1,0.3-0.3,0.3-0.5v-5.7h0.6c1.9,0,3.3-1.5,3.3-3.3v-12
		C-138.5,358.9-140.1,357.4-141.9,357.4z"/>
	<path class="st0" d="M-149.8,363.6l-19.3,0.1c-1.9,0-3.3,1.5-3.3,3.3v12c0,1.9,1.5,3.3,3.3,3.3h3.5v5.7c0,0.2,0.2,0.5,0.3,0.5
		c0.1,0,0.1,0.1,0.2,0.1c0.2,0,0.3-0.1,0.4-0.2l5.5-6.1l9.4-0.1c1.9,0,3.3-1.5,3.3-3.3v-12C-146.5,365.1-148,363.6-149.8,363.6z"/>
</g>
<g>
	<path class="st1" d="M-67.2,357.4l-19.3-0.1c-1.9,0-3.3,1.5-3.3,3.3v1.8l14.8-0.1c2.5,0,4.5,2,4.5,4.5v12c0,0.3-0.1,0.7-0.1,1
		l2,2.2c0.1,0.1,0.3,0.2,0.4,0.2s0.1,0,0.2-0.1c0.2-0.1,0.3-0.3,0.3-0.5v-5.7h0.6c1.9,0,3.3-1.5,3.3-3.3v-12
		C-63.8,358.9-65.4,357.4-67.2,357.4z"/>
	<path class="st1" d="M-75.1,363.6l-19.3,0.1c-1.9,0-3.3,1.5-3.3,3.3v12c0,1.9,1.5,3.3,3.3,3.3h3.5v5.7c0,0.2,0.2,0.5,0.3,0.5
		s0.1,0.1,0.2,0.1c0.2,0,0.3-0.1,0.4-0.2l5.5-6.1l9.4-0.1c1.9,0,3.3-1.5,3.3-3.3v-12C-71.8,365.1-73.3,363.6-75.1,363.6z"/>
</g>
<g>
	<path class="st2" d="M8.2,357.4l-19.3-0.1c-1.9,0-3.3,1.5-3.3,3.3v1.8l14.8-0.1c2.5,0,4.5,2,4.5,4.5v12c0,0.3-0.1,0.7-0.1,1l2,2.2
		c0.1,0.1,0.3,0.2,0.4,0.2c0.1,0,0.1,0,0.2-0.1c0.2-0.1,0.3-0.3,0.3-0.5v-5.7h0.6c1.9,0,3.3-1.5,3.3-3.3v-12
		C11.5,358.9,10,357.4,8.2,357.4z"/>
	<path class="st2" d="M0.2,363.6l-19.3,0.1c-1.9,0-3.3,1.5-3.3,3.3v12c0,1.9,1.5,3.3,3.3,3.3h3.5v5.7c0,0.2,0.2,0.5,0.3,0.5
		s0.1,0.1,0.2,0.1c0.2,0,0.3-0.1,0.4-0.2l5.5-6.1l9.4-0.1c1.9,0,3.3-1.5,3.3-3.3v-12C3.6,365.1,2,363.6,0.2,363.6z"/>
</g>
</svg>
