<?xml version="1.0" encoding="UTF-8" standalone="no"?>
<!-- Generator: Adobe Illustrator 17.0.0, SVG Export Plug-In . SVG Version: 6.00 Build 0)  -->

<svg
   xmlns:dc="http://purl.org/dc/elements/1.1/"
   xmlns:cc="http://creativecommons.org/ns#"
   xmlns:rdf="http://www.w3.org/1999/02/22-rdf-syntax-ns#"
   xmlns:svg="http://www.w3.org/2000/svg"
   xmlns="http://www.w3.org/2000/svg"
   xmlns:sodipodi="http://sodipodi.sourceforge.net/DTD/sodipodi-0.dtd"
   xmlns:inkscape="http://www.inkscape.org/namespaces/inkscape"
   version="1.1"
   id="Layer_1"
   x="0px"
   y="0px"
   width="34.136002"
   height="90.149734"
   viewBox="0 0 34.136 90.149734"
   enable-background="new 0 0 159.016 238.524"
   xml:space="preserve"
   inkscape:version="0.91 r13725"
   sodipodi:docname="sprite_slide_arrows.2.svg"><metadata
     id="metadata25"><rdf:RDF><cc:Work
         rdf:about=""><dc:format>image/svg+xml</dc:format><dc:type
           rdf:resource="http://purl.org/dc/dcmitype/StillImage" /><dc:title></dc:title></cc:Work></rdf:RDF></metadata><defs
     id="defs23" /><sodipodi:namedview
     pagecolor="#ffffff"
     bordercolor="#666666"
     borderopacity="1"
     objecttolerance="10"
     gridtolerance="10"
     guidetolerance="10"
     inkscape:pageopacity="0"
     inkscape:pageshadow="2"
     inkscape:window-width="1920"
     inkscape:window-height="1028"
     id="namedview21"
     showgrid="false"
     fit-margin-top="0"
     fit-margin-left="0"
     fit-margin-right="0"
     fit-margin-bottom="0"
     inkscape:zoom="5.5969948"
     inkscape:cx="82.176416"
     inkscape:cy="22.3049"
     inkscape:window-x="1600"
     inkscape:window-y="26"
     inkscape:window-maximized="1"
     inkscape:current-layer="Layer_1" /><g
     id="g3"
     transform="translate(-64.698,-75.326918)"><path
       d="m 64.762,81.749 c 13.109,0 23.083,0 23.083,0 0.209,0 0.379,0.17 0.379,0.379 l 0,0.782 c 0,0.209 -0.17,0.379 -0.379,0.379 0,0 -10.006,0 -23.147,0"
       id="path5"
       inkscape:connector-curvature="0"
       style="fill:#c9cdd0" /><path
       d="m 89.74,75.621 0,1.131 6.836,5.523 c 0.066,0.057 0.108,0.142 0.108,0.231 0,0.09 -0.042,0.175 -0.108,0.231 l -6.836,5.524 0,1.131 c 0,0.112 0.063,0.217 0.162,0.265 0.098,0.049 0.218,0.036 0.303,-0.034 l 8.522,-6.885 c 0.068,-0.057 0.107,-0.142 0.107,-0.231 0,-0.09 -0.039,-0.175 -0.107,-0.231 L 90.205,75.391 C 90.12,75.32 90.001,75.307 89.902,75.357 89.804,75.406 89.74,75.509 89.74,75.621 l 0,0 z"
       id="path7"
       inkscape:connector-curvature="0"
       style="fill:#51addc" /><path
       d="m 64.762,157.539 c 13.109,0 23.083,0 23.083,0 0.209,0 0.379,0.17 0.379,0.379 l 0,0.782 c 0,0.209 -0.17,0.379 -0.379,0.379 0,0 -10.006,0 -23.147,0"
       id="path9"
       inkscape:connector-curvature="0"
       style="fill:#c5ced5" /><path
       d="m 89.74,151.411 0,1.131 6.836,5.524 c 0.066,0.057 0.108,0.142 0.108,0.231 0,0.09 -0.042,0.176 -0.108,0.231 l -6.836,5.523 0,1.133 c 0,0.111 0.063,0.215 0.162,0.263 0.098,0.049 0.218,0.037 0.303,-0.034 l 8.522,-6.885 c 0.068,-0.055 0.107,-0.142 0.107,-0.231 0,-0.09 -0.039,-0.175 -0.107,-0.231 l -8.522,-6.885 c -0.085,-0.071 -0.204,-0.084 -0.303,-0.034 -0.098,0.048 -0.162,0.152 -0.162,0.264 l 0,0 z"
       id="path11"
       inkscape:connector-curvature="0"
       style="fill:#d3d6d9" /><path
       d="m 98.769,106.003 c -13.109,0 -23.083,0 -23.083,0 -0.209,0 -0.379,0.169 -0.379,0.378 l 0,0.782 c 0,0.209 0.17,0.379 0.379,0.379 0,0 10.006,0 23.147,0"
       id="path13"
       inkscape:connector-curvature="0"
       style="fill:#c9cdd0" /><path
       d="m 73.793,99.873 0,1.133 -6.837,5.522 c -0.066,0.058 -0.107,0.142 -0.107,0.231 0,0.09 0.041,0.176 0.107,0.231 l 6.837,5.525 0,1.131 c 0,0.112 -0.064,0.215 -0.164,0.265 -0.097,0.048 -0.218,0.036 -0.303,-0.034 l -8.522,-6.885 c -0.066,-0.057 -0.106,-0.143 -0.106,-0.231 0,-0.09 0.039,-0.175 0.106,-0.231 l 8.522,-6.886 c 0.085,-0.07 0.206,-0.084 0.303,-0.034 0.1,0.048 0.164,0.151 0.164,0.263 l 0,0 z"
       id="path15"
       inkscape:connector-curvature="0"
       style="fill:#51addc" /><path
       d="m 98.769,131.77 c -13.109,0 -23.083,0 -23.083,0 -0.209,0 -0.379,0.17 -0.379,0.379 l 0,0.782 c 0,0.209 0.17,0.379 0.379,0.379 0,0 10.006,0 23.147,0"
       id="path17"
       inkscape:connector-curvature="0"
       style="fill:#c9cdd0" /><path
       d="m 73.793,125.642 0,1.133 -6.837,5.522 c -0.066,0.057 -0.107,0.142 -0.107,0.231 0,0.09 0.041,0.176 0.107,0.231 l 6.837,5.523 0,1.133 c 0,0.112 -0.064,0.215 -0.164,0.265 -0.097,0.048 -0.218,0.036 -0.303,-0.036 l -8.522,-6.885 c -0.066,-0.055 -0.106,-0.142 -0.106,-0.23 0,-0.09 0.039,-0.176 0.106,-0.231 l 8.522,-6.886 c 0.085,-0.071 0.206,-0.084 0.303,-0.034 0.1,0.049 0.164,0.152 0.164,0.264 l 0,0 z"
       id="path19"
       inkscape:connector-curvature="0"
       style="fill:#c9cdd0" /></g></svg>