<?xml version="1.0" encoding="utf-8"?>
<!-- Generator: Adobe Illustrator 17.0.0, SVG Export Plug-In . SVG Version: 6.00 Build 0)  -->
<!DOCTYPE svg PUBLIC "-//W3C//DTD SVG 1.1//EN" "http://www.w3.org/Graphics/SVG/1.1/DTD/svg11.dtd">
<svg version="1.1" id="Layer_1" xmlns="http://www.w3.org/2000/svg" xmlns:xlink="http://www.w3.org/1999/xlink" x="0px" y="0px"
	 width="59px" height="105px" viewBox="0 0 59 105" enable-background="new 0 0 59 105" xml:space="preserve">
<path opacity="0.75" fill="#2F3B4C" enable-background="new    " d="M44,93.333H16c-1.658,0-3-1.342-3-3v-28c0-1.656,1.342-3,3-3h28
	c1.658,0,3,1.344,3,3v28C47,91.991,45.658,93.333,44,93.333L44,93.333z M34.634,73.467c1.249-1.249,2.434-2.434,2.434-2.434
	c0.487-0.489,0.487-1.279,0-1.768c-0.487-0.487-1.279-0.487-1.767,0L30,74.567l-5.301-5.301c-0.487-0.487-1.279-0.487-1.767,0
	c-0.487,0.489-0.487,1.279,0,1.767l5.301,5.301l-5.301,5.301c-0.487,0.487-0.487,1.279,0,1.767s1.279,0.487,1.767,0L30,78.1
	l5.301,5.301c0.487,0.487,1.279,0.487,1.767,0c0.487-0.487,0.487-1.279,0-1.767l-5.301-5.301
	C31.767,76.333,33.24,74.86,34.634,73.467L34.634,73.467z"/>
<path opacity="0.6" fill="#2F3B4C" enable-background="new    " d="M44,46.333H16c-1.658,0-3-1.344-3-3v-28c0-1.658,1.342-3,3-3h28
	c1.658,0,3,1.342,3,3v28C47,44.99,45.658,46.333,44,46.333L44,46.333z M34.634,26.466c1.249-1.249,2.434-2.434,2.434-2.434
	c0.487-0.487,0.487-1.279,0-1.767c-0.487-0.487-1.279-0.487-1.767,0L30,27.567l-5.301-5.301c-0.487-0.487-1.279-0.487-1.767,0
	s-0.487,1.279,0,1.767l5.301,5.301l-5.301,5.301c-0.487,0.487-0.487,1.278,0,1.767c0.487,0.487,1.279,0.487,1.767,0L30,31.1
	l5.301,5.301c0.487,0.487,1.279,0.487,1.767,0c0.487-0.489,0.487-1.279,0-1.767l-5.301-5.301
	C31.767,29.334,33.24,27.86,34.634,26.466L34.634,26.466z"/>
</svg>
