<svg xmlns="http://www.w3.org/2000/svg" xmlns:xlink="http://www.w3.org/1999/xlink" preserveAspectRatio="xMidYMid" width="48" height="43" viewBox="0 0 48 43">
  <defs>
    <style>
      .cls-1 {
        fill: #fff;
        fill-rule: evenodd;
      }
    </style>
  </defs>
  <path d="M34.051,42.964 C18.953,44.189 11.434,31.975 19.148,19.554 C19.148,19.554 21.104,18.568 20.898,20.755 C19.615,24.096 18.795,25.968 18.596,28.287 C17.418,42.046 33.685,40.651 33.685,40.651 C33.685,40.651 46.665,40.733 45.917,18.486 C43.959,18.814 42.397,19.202 41.132,19.626 C36.390,21.215 35.813,23.316 34.191,24.722 C31.821,25.345 32.471,23.398 32.471,23.383 C37.827,16.423 47.698,16.377 47.698,16.377 C50.301,40.729 35.875,42.547 34.051,42.964 ZM28.834,16.241 C26.936,17.236 25.425,15.623 27.125,14.614 C30.481,12.624 33.067,10.443 32.899,5.866 C32.899,5.866 33.332,4.384 34.805,5.514 C34.946,7.066 36.018,11.654 28.834,16.241 ZM23.975,8.101 C21.725,8.101 19.902,6.278 19.902,4.029 C19.902,1.780 21.725,-0.043 23.975,-0.043 C26.224,-0.043 28.047,1.780 28.047,4.029 C28.047,6.278 26.224,8.101 23.975,8.101 ZM30.054,21.278 C33.920,29.114 29.538,37.007 28.430,38.725 C26.353,39.676 26.563,37.658 26.563,37.658 C26.563,37.658 35.486,24.961 22.789,18.097 C11.902,12.953 13.263,7.276 13.422,5.514 C14.896,4.384 15.329,5.866 15.329,5.866 C15.013,14.475 24.905,14.161 30.054,21.278 ZM16.265,23.693 C16.265,23.693 16.052,25.485 14.547,24.527 C13.041,23.569 8.595,18.699 2.655,18.845 C2.177,39.680 12.319,40.929 19.959,40.819 C21.477,41.230 20.879,42.542 20.119,42.724 C-3.038,45.747 0.600,16.246 0.600,16.246 C0.600,16.246 11.499,16.724 16.265,23.693 Z" class="cls-1"/>
</svg>
