<?xml version="1.0" encoding="UTF-8" standalone="no"?>
<!-- Generator: Adobe Illustrator 19.0.0, SVG Export Plug-In . SVG Version: 6.00 Build 0)  -->

<svg
   xmlns:dc="http://purl.org/dc/elements/1.1/"
   xmlns:cc="http://creativecommons.org/ns#"
   xmlns:rdf="http://www.w3.org/1999/02/22-rdf-syntax-ns#"
   xmlns:svg="http://www.w3.org/2000/svg"
   xmlns="http://www.w3.org/2000/svg"
   xmlns:sodipodi="http://sodipodi.sourceforge.net/DTD/sodipodi-0.dtd"
   xmlns:inkscape="http://www.inkscape.org/namespaces/inkscape"
   version="1.1"
   id="Layer_1"
   sodipodi:docname="sprite-new.svg"
   inkscape:version="0.91 r13725"
   x="0px"
   y="0px"
   viewBox="-277 260.7 56 273.20002"
   xml:space="preserve"
   width="56"
   height="273.20001"><metadata
     id="metadata42"><rdf:RDF><cc:Work
         rdf:about=""><dc:format>image/svg+xml</dc:format><dc:type
           rdf:resource="http://purl.org/dc/dcmitype/StillImage" /><dc:title></dc:title></cc:Work></rdf:RDF></metadata><defs
     id="defs40" /><sodipodi:namedview
     pagecolor="#ffffff"
     bordercolor="#666666"
     borderopacity="1"
     objecttolerance="10"
     gridtolerance="10"
     guidetolerance="10"
     inkscape:pageopacity="0"
     inkscape:pageshadow="2"
     inkscape:window-width="1920"
     inkscape:window-height="1028"
     id="namedview38"
     showgrid="false"
     inkscape:zoom="4"
     inkscape:cx="-50.999999"
     inkscape:cy="166.85383"
     inkscape:window-x="1600"
     inkscape:window-y="26"
     inkscape:window-maximized="1"
     inkscape:current-layer="Layer_1"
     fit-margin-top="0"
     fit-margin-left="0"
     fit-margin-right="0"
     fit-margin-bottom="0" /><style
     type="text/css"
     id="style3">
	.st0{fill:#a9bfc7;}
</style><g
     id="g3"
     transform="translate(-278,-298.79999)"><g
       id="g5"><g
         id="use10"><path
           id="SVGID_1_"
           inkscape:connector-curvature="0"
           class="st0"
           d="m 40.6,601.6 -17.1,0 c -1.9,0 -3.4,1.5 -3.4,3.4 l 0,3.4 -1.7,0 c -1.9,0 -3.4,1.5 -3.4,3.4 l 0,15.4 c 0,1.9 1.5,3.4 3.4,3.4 l 15.4,0 c 1.9,0 3.4,-1.5 3.4,-3.4 l 0,-1.7 3.4,0 c 1.9,0 3.4,-1.5 3.4,-3.4 L 44,605 c 0,-1.9 -1.5,-3.4 -3.4,-3.4 l 0,0 0,0 z m -22.2,25.6 0,-15.4 5.1,0 9.4,0 c 0.5,0 0.9,0.4 0.9,0.9 l 0,9.4 0,5.1 -15.4,0 0,0 z m 22.2,-5.2 -5.1,0 0,-9.4 c 0,-1.4 -1.1,-2.6 -2.6,-2.6 l -9.4,0 0,-1.7 0,-3.4 17.1,0 0,17.1 0,0 z"
           style="fill:#a9bfc7" /></g></g></g><g
     id="g15"
     transform="translate(-278,-298.79999)"><g
       id="g17"><g
         id="use22"><path
           id="SVGID_3_"
           inkscape:connector-curvature="0"
           class="st0"
           d="m 16.7,657.7 c -2.9,0 -5.2,-2.8 -5.2,-6.2 0,-3.4 2.4,-6.2 5.2,-6.2 2.9,0 5.2,2.8 5.2,6.2 0.1,3.4 -2.2,6.2 -5.2,6.2 l 0,0 z m 1.6,-9 c -6.4,-1.3 -5.3,6.1 -5.3,3.6 0,0.8 0.2,1.5 0.6,2.1 0,0 1.2,2 3.2,1.8 2.9,-0.2 3.2,-1.8 3.2,-1.8 0.4,-0.6 0.6,-1.3 0.6,-2.1 -0.1,-1.6 -1,-3 -2.3,-3.6 l 0,0 0,0 z m 5.9,21.5 c 0,0 -3.7,2.4 -7.5,2.4 -3.7,0 -7.5,-2.4 -7.5,-2.4 -0.8,0 -1.5,-0.7 -1.5,-1.6 l 0,-3.1 0,-3.1 c 0,-1.7 1.3,-3.1 3,-3.1 l 3,0 c 0,0 0.8,2.3 3,2.2 2.2,0 3,-2.2 3,-2.2 l 3,0 c 1.7,0 3,1.4 3,3.1 l 0,3.1 0,3.1 c 0,0.9 -0.6,1.6 -1.5,1.6 l 0,0 z m -7.5,2.4 C 8,672.6 1,665.7 1,657.1 c 0,-8.6 7.1,-15.5 15.7,-15.5 8.7,0 15.8,6.9 15.8,15.5 0,8.5 -7.1,15.5 -15.8,15.5 l 0,0 z m 0,-29.7 c -8,0 -14.4,6.4 -14.4,14.2 0,4.4 2.1,8.4 5.3,11 l 1.2,0.8 0,0 c 2.3,1.5 5,2.4 8,2.4 3,0 5.8,-0.9 8.1,-2.5 l 1.2,-0.9 c 3.2,-2.6 5.2,-6.5 5.2,-10.9 -0.1,-7.8 -6.6,-14.1 -14.6,-14.1 l 0,0 0,0 z"
           style="fill:#a9bfc7" /></g></g><g
       id="g27"><g
         id="use32"><path
           id="SVGID_5_"
           inkscape:connector-curvature="0"
           class="st0"
           d="m 41.2,657.7 c -2.9,0 -5.2,-2.8 -5.2,-6.2 0,-3.4 2.4,-6.2 5.2,-6.2 2.9,0 5.2,2.8 5.2,6.2 0.1,3.4 -2.2,6.2 -5.2,6.2 l 0,0 z m 1.6,-9 c -6.4,-1.3 -5.3,6.1 -5.3,3.6 0,0.8 0.2,1.5 0.6,2.1 0,0 1.2,2 3.2,1.8 2.9,-0.2 3.2,-1.8 3.2,-1.8 0.4,-0.6 0.6,-1.3 0.6,-2.1 -0.1,-1.6 -1,-3 -2.3,-3.6 l 0,0 0,0 z m 5.9,21.5 c 0,0 -3.7,2.4 -7.5,2.4 -3.7,0 -7.5,-2.4 -7.5,-2.4 -0.8,0 -1.5,-0.7 -1.5,-1.6 l 0,-3.1 0,-3.1 c 0,-1.7 1.3,-3.1 3,-3.1 l 3,0 c 0,0 0.8,2.3 3,2.2 2.2,0 3,-2.2 3,-2.2 l 3,0 c 1.7,0 3,1.4 3,3.1 l 0,3.1 0,3.1 c 0,0.9 -0.6,1.6 -1.5,1.6 l 0,0 z m -7.5,2.4 c -8.7,0 -15.7,-6.9 -15.7,-15.5 0,-8.6 7.1,-15.5 15.7,-15.5 8.7,0 15.8,6.9 15.8,15.5 0,8.5 -7.1,15.5 -15.8,15.5 l 0,0 z m 0,-29.7 c -8,0 -14.4,6.4 -14.4,14.2 0,4.4 2.1,8.4 5.3,11 l 1.2,0.8 0,0 c 2.3,1.5 5,2.4 8,2.4 3,0 5.8,-0.9 8.1,-2.5 l 1.2,-0.9 c 3.2,-2.6 5.2,-6.5 5.2,-10.9 -0.1,-7.8 -6.6,-14.1 -14.6,-14.1 l 0,0 0,0 z"
           style="fill:#a9bfc7" /></g></g></g><g
     id="g37"
     transform="translate(-278,-298.79999)"><g
       id="g39"><g
         id="use44"><path
           id="SVGID_7_"
           inkscape:connector-curvature="0"
           class="st0"
           d="m 45.1,589.6 -31.2,0 c -0.5,0 -0.9,-0.4 -0.9,-0.9 l 0,-28.3 c 0,-0.5 0.4,-0.9 0.9,-0.9 0.5,0 0.9,0.4 0.9,0.9 l 0,27.4 30.4,0 c 0.5,0 0.9,0.4 0.9,0.9 -0.1,0.5 -0.5,0.9 -1,0.9 l 0,0 0,0 z m -18.2,-19.4 0.2,0.2 1.6,2.5 4.6,-2 2.3,2.9 3.6,-1.1 1.8,2.6 0.1,0.1 2.4,0 c 0,0 0.1,0 0.1,0.1 0,0.1 0,0.1 -0.1,0.1 l -2.1,0 0.1,0.1 0.2,2.2 -1.7,-1.1 -0.8,-1.2 -3.6,0 -0.7,0.2 -0.2,-0.2 -1.1,0 1.3,1.7 3.6,-1.1 1.5,2.2 1.8,1 0.1,1.2 1.5,0 c 0,0 0.1,0 0.1,0.1 0,0 0,0.1 -0.1,0.1 l -1.5,0 0.4,5 1.1,0 c 0,0 0.1,0 0.1,0.1 0,0 0,0.1 -0.1,0.1 l -1.1,0 0.1,0.8 -25.8,0 0,-1 -1,0 c 0,0 -0.1,0 -0.1,-0.1 0,0 0,-0.1 0.1,-0.1 l 1,0 0,-5 -1,0 c 0,0 -0.1,0 -0.1,-0.1 0,0 0,-0.1 0.1,-0.1 l 1,0 0,-5 -1.1,0 c 0,0 -0.1,0 -0.1,-0.1 0,-0.1 0,-0.1 0.1,-0.1 l 1.1,0 0,-3.7 1.9,-1.4 -3,0 c 0,0 -0.1,0 -0.1,-0.1 0,0 0,-0.1 0.1,-0.1 l 1.1,0 0,0 0,-0.7 0,-0.2 0,-1.1 3.8,-2.7 6.2,4.7 16.8,0 c 0,0 0.1,0 0.1,0.1 0,0 0,0.1 -0.1,0.1 l -16.5,0.1 0,0 0,0 z m 12.2,5 -0.5,-0.8 -2.4,0.8 2.9,0 0,0 z m -11.4,1.1 2.1,-0.9 -2.7,0 0.6,0.9 0,0 z m -7.3,-9 -3.7,2.6 2.1,0 1.7,-1.2 1.5,1.2 1.9,0 -3.5,-2.6 0,0 z m 5.4,4.1 -1.7,-1.3 -1.9,0 3.6,2.9 1.3,2.2 3.2,0 2.4,-1 0.8,1 1.1,0 -1.9,-2.4 -4.7,2.1 -2.2,-3.5 0,0 0,0 z m 17.6,-6.4 0,0 0,0 -27.8,0 0,0 0,0 c 0,0 -0.1,0 -0.1,-0.1 0,0 0,-0.1 0.1,-0.1 l 27.9,0 c 0,0 0,0 -0.1,0.2 0.1,-0.1 0.1,0 0,0 l 0,0 z"
           style="fill:#a9bfc7" /></g></g></g><g
     id="g49"
     transform="translate(-278,-298.79999)"><g
       id="g51"><g
         id="use56"><path
           id="SVGID_9_"
           inkscape:connector-curvature="0"
           class="st0"
           d="m 45.5,687.6 -3.8,-3.9 c -0.5,-0.5 -1.6,-0.4 -2.3,0.4 l -3.5,3.5 -4.8,-5.1 -15,0 0,31 23.6,0 0,-18.1 5.5,-5.5 c 0.6,-0.7 0.8,-1.8 0.3,-2.3 l 0,0 0,0 z m -14.1,-1 2.7,2.8 -1.5,1.5 -1.2,0 0,-4.3 0,0 z m 0.6,15.1 -5.3,2.2 -1.1,-1.2 2.2,-5.3 4.2,4.3 0,0 0,0 z m 5.1,9.4 -18.6,0 0,-26 11.1,0 0,7.7 1.2,0 -1.4,1.4 -8.2,0 0,1.3 6.9,0 -1.1,1.1 -1.1,2.8 -4.7,0 0,1.3 4.2,0 -1.6,4 -2.6,0 0,1.3 13.3,0 0,-1.3 -7.2,0 5.4,-2.2 1.7,-1.7 0.1,0 0,-0.1 2.6,-2.7 0,13.1 0,0 0,0 0,0 z"
           style="fill:#a9bfc7" /></g></g></g><g
     id="g61"
     transform="translate(-278,-298.79999)"><g
       id="g63"><g
         id="use68"><path
           id="SVGID_11_"
           inkscape:connector-curvature="0"
           class="st0"
           d="m 22.9,747 -1.3,-1.3 13.4,-13.4 1.3,1.3 -13.4,13.4 0,0 z m 6.5,-3.8 -3.8,3.8 -1.3,1.3 -1.3,1.3 c -0.7,0.7 -1.9,0.7 -2.7,0 L 19,748.3 c -0.7,-0.7 -0.7,-1.9 0,-2.7 l 1.3,-1.3 1.3,-1.3 3.8,-3.8 c -2.1,-1 -4.7,-0.7 -6.5,1.1 l -2.7,2.7 c -2.2,2.2 -2.2,5.8 0,8.1 l 1.3,1.3 c 2.2,2.2 5.8,2.2 8.1,0 l 2.7,-2.7 c 1.8,-1.8 2.1,-4.4 1.1,-6.5 l 0,0 z m 12.4,-15.1 -1.3,-1.3 c -2.2,-2.2 -5.8,-2.2 -8.1,0 l -2.7,2.7 c -1.8,1.8 -2.1,4.4 -1.1,6.5 l 3.8,-3.8 1.3,-1.3 1.3,-1.3 c 0.7,-0.7 1.9,-0.7 2.7,0 l 1.3,1.3 c 0.7,0.7 0.7,1.9 0,2.7 l -1.3,1.3 -1.3,1.3 -3.8,3.8 c 2.1,1 4.7,0.7 6.5,-1.1 l 2.7,-2.7 c 2.2,-2.2 2.2,-5.8 0,-8.1 l 0,0 z"
           style="fill:#a9bfc7" /></g></g></g><g
     id="Layer_2"
     transform="translate(-278,-298.79999)"><g
       id="g74"><g
         id="g76"><g
           id="use81"><path
             id="SVGID_13_"
             inkscape:connector-curvature="0"
             class="st0"
             d="m 47.3,790.9 c 0,0 -0.1,0 -0.2,0 -0.1,0 -0.1,0 -0.2,-0.1 l -5.5,-4.1 c -0.1,-0.1 -0.2,-0.2 -0.1,-0.3 0.1,-1.3 0.1,-2.6 0,-3.9 0,-0.1 0,-0.3 0.1,-0.3 l 5.5,-4.1 c 0.1,-0.1 0.2,-0.1 0.4,0 0.1,0.1 0.2,0.2 0.2,0.3 l 0,12.2 c 0,0.1 -0.1,0.2 -0.2,0.3 l 0,0 0,0 z m -8,0 c -2.6,0.4 -5.2,0.6 -7.8,0.6 -2.6,0 -5.2,-0.2 -7.8,-0.6 -0.1,0 -0.2,-0.1 -0.3,-0.3 -0.8,-3.2 -0.9,-6.3 -0.5,-9.5 0.1,0.2 0.4,0.4 0.6,0.4 0.1,0 0.2,0 0.3,-0.1 1.8,-0.7 3.1,-2.1 3.8,-3.8 0.6,0 1.3,0 1.9,-0.1 -0.7,2.4 -2.5,4.5 -5,5.5 -0.4,0.2 -0.6,0.6 -0.4,1 0.1,0.3 0.4,0.5 0.7,0.5 0.1,0 0.2,0 0.3,-0.1 3,-1.3 5.2,-3.9 6,-6.9 0.1,0 0.2,0 0.4,0 2.6,0 5.2,0.2 7.8,0.6 0.1,0 0.2,0.1 0.3,0.3 1,4.1 1,8.2 0,12.3 0,0.1 -0.1,0.2 -0.3,0.2 l 0,0 0,0 z m -16,-10.8 c -0.1,0 -0.1,0.1 -0.2,0.1 0.1,-0.6 0.2,-1.3 0.4,-1.9 0,-0.1 0.1,-0.2 0.3,-0.3 0.7,-0.1 1.4,-0.2 2.1,-0.2 -0.6,1 -1.5,1.8 -2.6,2.3 l 0,0 0,0 z m -0.4,1 c -0.1,-0.3 0,-0.6 0.2,-0.9 0,0.3 -0.1,0.6 -0.2,0.9 l 0,0 0,0 z m 3.8,-6.1 c 0,-2.2 -1.3,-4.2 -3.4,-5.1 -0.4,-0.2 -0.6,-0.6 -0.4,-1 0.2,-0.4 0.6,-0.6 1,-0.4 2.6,1.1 4.3,3.6 4.3,6.4 0,0.9 -0.2,1.8 -0.5,2.6 -0.6,0 -1.2,0.1 -1.8,0.2 0.5,-0.7 0.8,-1.7 0.8,-2.7 l 0,0 z m 3.3,0 c 0,-3.5 -2.1,-6.6 -5.4,-8 -0.4,-0.2 -0.6,-0.6 -0.4,-1 0.2,-0.4 0.6,-0.6 1,-0.4 3.8,1.6 6.3,5.3 6.3,9.4 0,0.8 -0.1,1.7 -0.3,2.5 -0.5,0 -1,0 -1.6,0.1 0.2,-0.9 0.4,-1.7 0.4,-2.6 l 0,0 z m -5.2,0 c 0,1.5 -0.9,2.8 -2.3,3.4 -0.1,0 -0.2,0.1 -0.3,0.1 -0.3,0 -0.6,-0.2 -0.7,-0.4 -0.2,-0.4 0,-0.8 0.4,-1 0.8,-0.3 1.3,-1.1 1.3,-2 0,-0.9 -0.5,-1.7 -1.4,-2 -0.4,-0.2 -0.6,-0.6 -0.4,-1 0.2,-0.4 0.6,-0.6 1,-0.4 1.5,0.5 2.4,1.8 2.4,3.3 l 0,0 z m -4.5,8.2 c -0.1,0 -0.2,0.1 -0.3,0.1 -0.2,0 -0.4,-0.1 -0.5,-0.2 l -4.6,-4.6 -3.5,0 c -0.4,0 -0.8,-0.3 -0.8,-0.7 l 0,-5.4 c 0,-0.4 0.3,-0.7 0.8,-0.7 l 3.6,0 4.6,-4.6 c 0.2,-0.2 0.5,-0.3 0.8,-0.2 0.3,0.1 0.5,0.4 0.5,0.7 l 0,14.9 c -0.2,0.3 -0.3,0.6 -0.6,0.7 l 0,0 z"
             style="fill:#a9bfc7" /></g></g></g></g><g
     id="Layer_2_1_"
     transform="translate(0,-0.09998779)"><g
       id="g34"><path
         class="st0"
         d="m -245.5,533.6 0.3,-1 2.6,-1.7 0.7,-1.9 1.8,-0.8 1.7,-3.2 -2.6,-1.5 -1.3,-1.5 -0.8,-0.1 -1.6,-0.4 -1.4,-0.2 -1.2,0.3 -0.7,-0.8 -0.7,-0.2 0.1,-1.1 -0.9,0 -0.5,0.6 -0.3,-1.2 1.2,-0.6 1.2,0.6 0.6,0 0.2,-1 1.8,-2.2 2.5,-1.3 1.4,0.2 0.1,-0.7 -1.8,-1.8 -0.7,-1.4 -1,0 -0.6,-0.4 -1.3,-0.2 -0.3,1.6 -1.6,-0.3 -0.1,-1 1.2,-0.3 0.4,-1.8 1.2,0.5 0,0.8 0.9,0.4 0.6,0.2 0.8,-0.4 -0.7,-0.8 -1.4,-1.4 0,-0.6 1.4,0.3 1.2,1.1 0.4,1 0.3,0.9 1.9,1.7 0.5,0.2 0.7,-1.1 2.4,-0.2 0.4,-0.1 c 1.6,2.4 2.5,5.3 2.5,8.4 0,6.9 -4.9,12.8 -11.5,14.4 z m 0.9,-28.4 -1,0.7 -0.7,0.8 -2.7,0.3 -1.1,-0.2 -0.3,0.5 c -0.2,-1.2 -0.8,-2.2 -1.6,-3.1 1,-0.2 2,-0.3 3.1,-0.3 2.3,0 4.4,0.5 6.4,1.4 l -0.5,0.1 -1.6,-0.2 z m -2.2,-0.7 -1.5,0.8 -0.9,0.6 0.6,0.4 1.4,-0.1 1.4,-1.1 -1,-0.6 z m -10.1,14.2 c 0,0 -5.5,-5.3 -5.5,-10.1 0,-3.1 2.5,-5.5 5.5,-5.5 3,0 5.5,2.5 5.5,5.5 0,4.6 -5.5,10.1 -5.5,10.1 z m 0,-13 c -1.6,0 -2.9,1.3 -2.9,2.9 0,1.6 1.3,2.9 2.9,2.9 1.6,0 2.9,-1.3 2.9,-2.9 0,-1.6 -1.3,-2.9 -2.9,-2.9 z m -0.7,13.8 0.7,0.7 0.7,-0.7 c 0.1,-0.1 0.7,-0.7 1.4,-1.6 l 1.6,2.2 0.4,0 0,-1 0.8,1.7 2.5,0.6 1.1,1.1 1,0.3 -1,2.1 1.1,2 c 0,0 0.7,2.3 0.7,2.4 0,0.1 -0.7,2.8 -0.7,2.8 l 0.2,1.8 c -0.6,0.1 -1.2,0.1 -1.9,0.1 -8.3,0 -15,-6.8 -15,-15.1 0,-2.3 0.5,-4.5 1.5,-6.5 1.6,3.8 4.7,6.9 4.9,7.1 z"
         id="path36"
         inkscape:connector-curvature="0"
         style="fill:#a9bfc7" /></g></g></svg>