<?xml version="1.0" encoding="UTF-8" standalone="no"?>
<!-- Generator: Adobe Illustrator 19.0.0, SVG Export Plug-In . SVG Version: 6.00 Build 0)  -->

<svg
   xmlns:dc="http://purl.org/dc/elements/1.1/"
   xmlns:cc="http://creativecommons.org/ns#"
   xmlns:rdf="http://www.w3.org/1999/02/22-rdf-syntax-ns#"
   xmlns:svg="http://www.w3.org/2000/svg"
   xmlns="http://www.w3.org/2000/svg"
   xmlns:sodipodi="http://sodipodi.sourceforge.net/DTD/sodipodi-0.dtd"
   xmlns:inkscape="http://www.inkscape.org/namespaces/inkscape"
   version="1.1"
   id="svg2"
   sodipodi:docname="toolbar-sprite.svg"
   inkscape:version="0.91 r13725"
   x="0px"
   y="0px"
   viewBox="-285 -399.6 39.099998 1694.4001"
   xml:space="preserve"
   width="39.099998"
   height="1694.4"><metadata
     id="metadata3646"><rdf:RDF><cc:Work
         rdf:about=""><dc:format>image/svg+xml</dc:format><dc:type
           rdf:resource="http://purl.org/dc/dcmitype/StillImage" /><dc:title></dc:title></cc:Work></rdf:RDF></metadata><defs
     id="defs3644" /><style
     type="text/css"
     id="style3605">
	.st0{fill:#555760;}
	.st1{fill:#FFFFFF;}
	.st2{fill:#52565D;}
	.st3{fill:#CBCED1;}
	.st4{fill-rule:evenodd;clip-rule:evenodd;fill:#555760;}
</style><sodipodi:namedview
     fit-margin-left="0"
     fit-margin-top="0"
     id="namedview68"
     bordercolor="#666666"
     pagecolor="#ffffff"
     borderopacity="1"
     objecttolerance="10"
     inkscape:zoom="2.4408533"
     guidetolerance="10"
     inkscape:cx="-88.366"
     inkscape:cy="169.29525"
     gridtolerance="10"
     showgrid="false"
     fit-margin-bottom="0"
     fit-margin-right="0"
     inkscape:pageopacity="0"
     inkscape:pageshadow="2"
     inkscape:window-height="1021"
     inkscape:window-width="1920"
     inkscape:window-x="0"
     inkscape:window-maximized="1"
     inkscape:current-layer="g8"
     inkscape:window-y="0" /><g
     id="Layer_2"
     transform="translate(0.094,0.6959939)" /><g
     id="g8"
     transform="translate(0.1,0.6999939)"><path
       id="path10"
       inkscape:connector-curvature="0"
       class="st0"
       d="m -274.7,-396.4 7.8,0 0,21.1 -2.7,0 0,2 2.7,0 4,0 2.7,0 0,-2 -2.7,0 0,-21.1 7.8,0 0.4,3 1.8,0 0,-6.9 -24,0 0,6.9 1.8,0 c -0.1,0 0.4,-3 0.4,-3 z"
       style="fill:#555760" /><path
       id="path12"
       inkscape:connector-curvature="0"
       class="st0"
       d="m -269.6,-330.7 c -1.1,0 -2.1,-0.6 -2.8,-1.4 l -5.9,3.1 c 0.1,0.3 0.2,0.6 0.2,1 0,0.3 -0.1,0.6 -0.1,0.9 l 5.9,3.1 c 0.6,-0.8 1.6,-1.4 2.7,-1.4 1.9,0 3.5,1.6 3.5,3.5 0,2 -1.6,3.5 -3.5,3.5 -1.9,0 -3.5,-1.6 -3.5,-3.5 0,-0.3 0.1,-0.7 0.2,-1 l -5.9,-3.1 c -0.6,0.9 -1.6,1.4 -2.8,1.4 -1.9,0 -3.5,-1.6 -3.5,-3.5 0,-2 1.6,-3.5 3.5,-3.5 1.1,0 2.1,0.5 2.7,1.4 l 5.9,-3.1 c -0.1,-0.3 -0.1,-0.6 -0.1,-0.9 0,-2 1.6,-3.5 3.5,-3.5 1.9,0 3.5,1.6 3.5,3.5 0,1.9 -1.6,3.5 -3.5,3.5 l 0,0 0,0 z m 19,-11.6 -0.4,-2.6 -7.1,0 0,18.5 2.5,0 0,1.7 -2.5,0 -3.7,0 -2.5,0 0,-1.7 2.5,0 0,-18.5 -7.1,0 -0.4,2.6 -1.7,0 0,-6.1 21.9,0 0,6.1 -1.5,0 0,0 z"
       style="fill:#555760" /><path
       id="path14"
       inkscape:connector-curvature="0"
       class="st0"
       d="m -256.6,-288.3 -13.9,0 c -0.9,0 -1.6,0.7 -1.6,1.5 0,0.9 0.7,1.5 1.6,1.5 l 10.3,0 -16.8,16.7 2.2,2.2 16.8,-16.7 0,10.2 c 0,0.9 0.7,1.5 1.6,1.5 0.9,0 1.6,-0.7 1.6,-1.5 l 0,-13.9 c 0,-0.5 -0.2,-0.8 -0.5,-1.1 -0.5,-0.3 -0.9,-0.4 -1.3,-0.4 l 0,0 c 0,0 0,0 0,0 z"
       style="fill:#555760" /><path
       id="path16"
       inkscape:connector-curvature="0"
       class="st0"
       d="m -278,-212.3 0,-26 26,0 0,26 -26,0 c 0,0 0,0 0,0 z m 23.3,-23.3 -20.5,0 0,20.5 20.5,0 0,-20.5 0,0 z"
       style="fill:#555760" /><path
       id="path18"
       inkscape:connector-curvature="0"
       class="st0"
       d="m -265.5,-158.3 c -9.1,0 -16.5,-6 -16.5,-13.5 0,-7.5 7.4,-13.5 16.5,-13.5 9.1,0 16.5,6 16.5,13.5 0,7.4 -7.4,13.5 -16.5,13.5 0,0 0,0 0,0 z m 0,-23.9 c -7.4,0 -13.4,4.6 -13.4,10.3 0,5.7 6,10.3 13.4,10.3 7.4,0 13.4,-4.6 13.4,-10.3 0,-5.6 -6,-10.3 -13.4,-10.3 0,0 0,0 0,0 z"
       style="fill:#555760" /><path
       id="path20"
       inkscape:connector-curvature="0"
       class="st0"
       d="m -252,-105.3 -26.5,0 c -1.7,0 -2.6,-2.1 -0.3,-5 l 12,-18.9 c 0.4,-1 2.6,-1.1 3.1,0 l 12,18.9 c 2.7,2.9 1.1,5 -0.3,5 l 0,0 0,0 z m -13.2,-20.5 c -2.2,3.4 -6.9,10.7 -6.9,10.9 0,0.2 -4,6.3 -4,6.3 -0.1,0.1 -0.2,0.3 -0.4,0.5 l 22.5,0 c -0.2,-0.2 -0.3,-0.4 -0.4,-0.5 l -10.8,-17.2 0,0 0,0 z"
       style="fill:#555760" /><path
       id="path22"
       inkscape:connector-curvature="0"
       class="st0"
       d="m -277.8,-67.5 c -2.9,0 -5.2,-2.4 -5.2,-5.4 0,-3 2.3,-5.4 5.2,-5.4 2.9,0 5.2,2.4 5.2,5.4 0,3 -2.4,5.4 -5.2,5.4 l 0,0 z m 25.1,16.2 -27.8,0 c -1.9,0 -2.4,-1.2 -1.2,-2.7 l 4.9,-6 c 1.2,-1.5 3.4,-1.9 4.8,-0.9 1.4,1 3.4,0.5 4.4,-1.2 l 4.9,-8.2 c 1,-1.7 2.5,-1.6 3.5,0.1 l 8.4,15.7 c 0.8,1.8 0,3.2 -1.9,3.2 l 0,0 0,0 z"
       style="fill:#555760" /><path
       id="path24"
       inkscape:connector-curvature="0"
       class="st1"
       d="m -277.6,-9.5 9.7,0 0,9.7 c 0,0.8 0.6,1.4 1.4,1.4 0.8,0 1.4,-0.6 1.4,-1.4 l 0,-9.7 9.7,0 c 0.8,0 1.4,-0.6 1.4,-1.4 0,-0.8 -0.6,-1.4 -1.4,-1.4 l -9.7,0 0,-9.7 c 0,-0.8 -0.6,-1.4 -1.4,-1.4 -0.8,0 -1.4,0.6 -1.4,1.4 l 0,9.7 -9.7,0 c -0.8,0 -1.4,0.6 -1.4,1.4 0,0.8 0.6,1.4 1.4,1.4 0,0 0,0 0,0 z"
       style="fill:#ffffff" /><path
       id="path26"
       inkscape:connector-curvature="0"
       class="st0"
       d="m -253,48.5 c 0,3.8 -1.5,7.5 -4.3,10.2 l -2.6,-2.5 c 2.1,-2 3.2,-4.8 3.2,-7.6 0,-2.9 -1.1,-5.6 -3.2,-7.6 -4.2,-4.2 -11.1,-4.2 -15.4,0 l 4.1,4.1 -10.8,0 0,-11 4.2,4.2 c 5.7,-5.6 14.9,-5.6 20.5,0 2.8,2.7 4.3,6.3 4.3,10.2 l 0,0 0,0 0,0 z"
       style="fill:#555760" /><path
       id="path28"
       inkscape:connector-curvature="0"
       class="st0"
       d="m -282,101.5 c 0,3.8 1.5,7.5 4.3,10.2 l 2.6,-2.5 c -2.1,-2 -3.2,-4.8 -3.2,-7.6 0,-2.9 1.1,-5.6 3.2,-7.6 4.2,-4.2 11.1,-4.2 15.4,0 l -4.1,4.1 10.9,0 0,-11 -4.2,4.2 c -5.7,-5.6 -14.9,-5.6 -20.5,0 -2.9,2.7 -4.4,6.3 -4.4,10.2 l 0,0 0,0 0,0 z"
       style="fill:#555760" /><path
       id="path30"
       inkscape:connector-curvature="0"
       class="st0"
       d="m -266.3,144 -2.3,0 0,7.5 7.1,4.1 1.2,-1.9 -6,-3.5 0,-6.2 m 0,-7.4 c -5.3,0 -9.9,2.8 -12.3,7.1 l -3.4,-3.4 0,9.6 9.8,0 -4.2,-4.1 c 1.9,-3.7 5.7,-6.2 10.2,-6.2 6.2,0 11.2,5 11.2,11.1 0,6 -5.1,11.1 -11.2,11.1 -5,0 -9,-3.1 -10.7,-7.4 l -3.2,0 c 1.7,5.9 7.2,10.3 13.8,10.3 7.9,0 14.2,-6.3 14.2,-14 0.1,-7.8 -6.4,-14.1 -14.2,-14.1"
       style="fill:#555760" /><path
       id="path32"
       inkscape:connector-curvature="0"
       class="st0"
       d="m -280,218.7 0,-30 25.7,0 4.3,4.3 0,25.7 -30,0 0,0 z m 25.5,-28.3 -18.2,0 0,13 18.2,0 0,-13 0,0 z m -7.5,11.6 0,-10.2 5.3,0 0,10.2 -5.3,0 0,0 z"
       style="fill:#555760" /><path
       id="path34"
       inkscape:connector-curvature="0"
       class="st0"
       d="m -269,252 c -1.2,0 -2.2,-0.6 -2.9,-1.5 l -6.1,3.2 c 0.1,0.3 0.2,0.7 0.2,1 0,0.3 -0.1,0.6 -0.1,1 l 6.1,3.2 c 0.7,-0.9 1.7,-1.4 2.8,-1.4 2,0 3.6,1.6 3.6,3.7 0,2 -1.6,3.7 -3.6,3.7 -2,0 -3.6,-1.7 -3.6,-3.7 0,-0.4 0.1,-0.7 0.2,-1 l -6.1,-3.2 c -0.7,0.9 -1.7,1.5 -2.9,1.5 -2,0 -3.6,-1.6 -3.6,-3.7 0,-2 1.6,-3.7 3.6,-3.7 1.1,0 2.2,0.6 2.8,1.4 l 6.1,-3.2 c -0.1,-0.3 -0.1,-0.6 -0.1,-1 0,-2 1.6,-3.7 3.6,-3.7 2,0 3.6,1.6 3.6,3.7 0.1,2 -1.6,3.7 -3.6,3.7 l 0,0 0,0 0,0 z m 14.6,10.8 5.8,10 -3,1.7 -5.8,-10 -4.6,7 -1.2,-20.7 17.2,11.4 -8.4,0.6 0,0 0,0 0,0 z"
       style="fill:#555760" /><path
       id="path36"
       inkscape:connector-curvature="0"
       class="st0"
       d="m -247.2,324.1 c 0,0 -0.1,0 -0.2,0 -0.1,0 -0.1,0 -0.2,-0.1 l -5.3,-4 c -0.1,-0.1 -0.1,-0.2 -0.1,-0.3 0.1,-1.2 0.1,-2.5 0,-3.7 0,-0.1 0,-0.2 0.1,-0.3 l 5.3,-4 c 0.1,-0.1 0.2,-0.1 0.3,0 0.1,0.1 0.2,0.2 0.2,0.3 l 0,11.7 c 0.1,0.2 0,0.3 -0.1,0.4 l 0,0 0,0 0,0 z m -7.8,0 c -2.5,0.4 -5.1,0.6 -7.6,0.6 -2.5,0 -5.1,-0.2 -7.6,-0.6 -0.1,0 -0.2,-0.1 -0.3,-0.3 -0.7,-3.1 -0.9,-6.1 -0.5,-9.1 0.1,0.2 0.4,0.3 0.6,0.3 0.1,0 0.2,0 0.3,-0.1 1.7,-0.7 3,-2.1 3.7,-3.7 0.6,0 1.2,0 1.9,-0.1 -0.7,2.3 -2.5,4.3 -4.9,5.3 -0.4,0.2 -0.6,0.6 -0.4,0.9 0.1,0.3 0.4,0.4 0.7,0.4 0.1,0 0.2,0 0.3,-0.1 3,-1.2 5.1,-3.7 5.8,-6.7 0.1,0 0.2,0 0.4,0 2.5,0 5.1,0.2 7.6,0.6 0.1,0 0.2,0.1 0.3,0.3 1,4 1,7.9 0,11.8 0,0.4 -0.1,0.5 -0.3,0.5 l 0,0 0,0 0,0 0,0 z m -15.6,-10.4 c -0.1,0 -0.1,0.1 -0.2,0.1 0.1,-0.6 0.2,-1.2 0.4,-1.8 0,-0.1 0.1,-0.2 0.3,-0.3 0.7,-0.1 1.4,-0.2 2.1,-0.2 -0.6,0.9 -1.5,1.7 -2.6,2.2 l 0,0 0,0 0,0 0,0 z m -0.3,0.9 c -0.1,-0.3 0,-0.6 0.2,-0.8 -0.1,0.3 -0.1,0.6 -0.2,0.8 0,0.1 0,0.1 0,0 l 0,0 0,0 0,0 z m 3.6,-5.8 c 0,-2.1 -1.3,-4 -3.3,-4.9 -0.4,-0.2 -0.6,-0.6 -0.4,-0.9 0.2,-0.4 0.6,-0.5 1,-0.4 2.6,1.1 4.2,3.5 4.2,6.2 0,0.9 -0.2,1.7 -0.5,2.5 -0.6,0 -1.2,0.1 -1.7,0.2 0.5,-0.8 0.7,-1.7 0.7,-2.7 l 0,0 0,0 0,0 z m 3.2,0 c 0,-3.4 -2.1,-6.4 -5.3,-7.7 -0.4,-0.2 -0.6,-0.6 -0.4,-0.9 0.2,-0.4 0.6,-0.5 1,-0.4 3.7,1.6 6.2,5.1 6.2,9 0,0.8 -0.1,1.6 -0.3,2.4 -0.5,0 -1,0 -1.5,0.1 0.2,-0.8 0.3,-1.6 0.3,-2.5 l 0,0 0,0 0,0 z m -5,0 c 0,1.4 -0.9,2.7 -2.2,3.2 -0.1,0 -0.2,0.1 -0.3,0.1 -0.3,0 -0.6,-0.2 -0.7,-0.4 -0.2,-0.4 0,-0.8 0.4,-0.9 0.8,-0.3 1.3,-1.1 1.3,-1.9 0,-0.8 -0.5,-1.6 -1.3,-1.9 -0.4,-0.2 -0.6,-0.6 -0.4,-0.9 0.2,-0.4 0.6,-0.5 1,-0.4 1.4,0.4 2.2,1.7 2.2,3.1 l 0,0 0,0 0,0 0,0 z m -4.4,7.9 c -0.1,0 -0.2,0.1 -0.3,0.1 -0.2,0 -0.4,-0.1 -0.5,-0.2 l -4.5,-4.4 -3.4,0 c -0.4,0 -0.7,-0.3 -0.7,-0.7 l 0,-5.2 c 0,-0.4 0.3,-0.7 0.7,-0.7 l 3.5,0 4.5,-4.4 c 0.2,-0.2 0.5,-0.3 0.8,-0.2 0.3,0.1 0.5,0.4 0.5,0.7 l 0,14.3 c -0.1,0.3 -0.3,0.6 -0.6,0.7 l 0,0 0,0 0,0 0,0 z"
       style="fill:#555760" /><path
       id="path38"
       inkscape:connector-curvature="0"
       class="st0"
       d="m -259,375.5 c 0.1,1.5 0.1,3 0.1,4.7 0,0.2 0,0.4 -0.1,0.5 -0.2,0.5 -0.6,0.8 -1.1,0.9 -2,0 -3.8,0.1 -5.6,0.1 -2.9,0 -5.6,-0.1 -8.2,-0.2 -0.3,0 -0.6,-0.1 -0.8,-0.3 -0.4,-0.2 -0.7,-0.6 -0.7,-1.1 0,-5.1 -0.1,-10.3 -0.2,-15.4 -0.1,-3.7 -0.2,-7.6 -0.2,-11.4 0,-0.3 0.1,-0.6 0.2,-0.8 0.2,-0.4 0.6,-0.6 1,-0.6 2.7,-0.2 5.3,-0.2 7.3,-0.2 1.2,0 2.3,0 3.5,0 1,0 2,0 3,0 0.5,0 0.9,0.3 1.1,0.7 0.2,0.2 0.2,0.5 0.2,0.8 0,1.1 0.1,2.2 0.2,3.3 0,0.1 0,0.2 0,0.3 0,0 0,0 0,0.1 l 0,0.8 c 0,0.7 -0.6,1.3 -1.2,1.3 -0.7,0 -1.2,-0.6 -1.2,-1.3 l 0,-0.8 c 0,-0.1 0,-0.1 0,-0.2 0,0 0,-0.1 0,-0.1 -0.1,-0.8 -0.1,-1.5 -0.2,-2.3 -0.6,0 -1.2,0 -1.8,0 -1.1,0 -2.3,0 -3.4,0 -2.5,0 -4.4,0 -6.2,0.2 0,3.4 0.1,6.9 0.2,10.2 0.1,4.7 0.2,9.6 0.2,14.3 2.3,0.1 4.7,0.1 7.3,0.1 1.4,0 2.9,0 4.4,0 0,-1.1 0,-2.3 -0.1,-3.5 0,-0.4 0.1,-0.7 0.3,-0.9 0.2,-0.2 0.5,-0.4 0.9,-0.4 0.4,0 1,0.4 1.1,1.2 l 0,0 0,0 z m 3.2,-15.9 0,4.9 -5.4,0 c -0.4,0 -0.6,0.2 -0.7,0.5 -0.1,0.1 -0.2,0.3 -0.2,0.5 l 0,1 0,0.6 0,1 c 0,0.2 0.1,0.4 0.2,0.5 0.1,0.3 0.3,0.5 0.7,0.5 l 5.4,0 0,4.9 7.8,-7.1 -7.8,-7.3 0,0 0,0 z"
       style="fill:#555760" /><path
       id="path40"
       inkscape:connector-curvature="0"
       class="st0"
       d="m -271.2,431.6 -7.2,2.9 -1.6,-1.6 3,-7.2 5.8,5.9 0,0 0,0 z m 4.1,-2 c 1.3,-1.3 3,-3 3,-3 l 3.4,-3.4 7.5,-7.5 c 1,-1 1.3,-2.5 0.6,-3.2 l -5.2,-5.3 c -0.7,-0.7 -2.2,-0.5 -3.2,0.6 l -4.8,4.8 -2.4,2.4 -2,2 -2.6,2.6 -1.9,1.9"
       style="fill:#555760" /><path
       id="path42"
       inkscape:connector-curvature="0"
       class="st0"
       d="m -267.4,483.9 c -0.1,0 -0.2,0.1 -0.3,0.1 -0.2,0 -0.5,-0.1 -0.6,-0.3 l -5.5,-5.7 -4.2,0 c -0.5,0 -0.9,-0.4 -0.9,-0.9 l 0,-6.8 c 0,-0.5 0.4,-0.9 0.9,-0.9 l 4.2,0 5.5,-5.7 c 0.3,-0.3 0.6,-0.4 1,-0.2 0.3,0.1 0.6,0.5 0.6,0.9 l 0,18.9 c -0.1,0.1 -0.3,0.5 -0.7,0.6 l 0,0 0,0 0,0 z m 4.4,-2.2 c -0.1,0.1 -0.2,0.1 -0.4,0.1 -0.4,0 -0.7,-0.2 -0.8,-0.6 -0.2,-0.5 0,-1 0.5,-1.2 2.5,-1.1 4,-3.6 4,-6.4 0,-2.8 -1.6,-5.3 -4.1,-6.4 -0.5,-0.2 -0.7,-0.8 -0.5,-1.2 0.2,-0.5 0.7,-0.7 1.2,-0.5 3.1,1.4 5.2,4.6 5.2,8.1 0,3.5 -2,6.7 -5.1,8.1 l 0,0 0,0 0,0 z m -1.6,-3.8 c -0.1,0.1 -0.2,0.1 -0.4,0.1 -0.4,0 -0.7,-0.2 -0.8,-0.6 -0.2,-0.5 0,-1 0.5,-1.2 1,-0.4 1.6,-1.4 1.6,-2.5 0,-1.1 -0.6,-2.1 -1.6,-2.5 -0.5,-0.2 -0.7,-0.8 -0.5,-1.2 0.2,-0.5 0.7,-0.7 1.2,-0.5 1.7,0.7 2.7,2.4 2.7,4.3 0,1.6 -1.1,3.3 -2.7,4.1 l 0,0 0,0 z m 3.1,7.5 c -0.1,0.1 -0.2,0.1 -0.4,0.1 -0.4,0 -0.7,-0.2 -0.8,-0.6 -0.2,-0.5 0,-1 0.5,-1.2 3.9,-1.7 6.4,-5.7 6.4,-10.1 0,-4.4 -2.5,-8.4 -6.4,-10.1 -0.5,-0.2 -0.7,-0.8 -0.5,-1.2 0.2,-0.5 0.7,-0.7 1.2,-0.5 4.6,2 7.5,6.7 7.5,11.9 0,5 -2.9,9.7 -7.5,11.7 l 0,0 0,0 0,0 z"
       style="fill:#555760" /><path
       id="path44"
       inkscape:connector-curvature="0"
       class="st0"
       d="m -248.2,537.6 c -0.1,0 -0.1,0 -0.2,0 -0.1,0 -0.2,0 -0.2,-0.1 l -6.6,-5 c -0.1,-0.1 -0.2,-0.2 -0.2,-0.4 0.1,-1.6 0.1,-3.1 0,-4.7 0,-0.2 0.1,-0.3 0.2,-0.4 l 6.6,-5 c 0.1,-0.1 0.3,-0.1 0.4,0 0.1,0.1 0.2,0.2 0.2,0.4 l 0,14.8 c 0,0.2 -0.1,0.3 -0.2,0.4 l 0,0 0,0 z m -9.6,0 c -3.1,0.5 -6.2,0.7 -9.3,0.7 -3.1,0 -6.2,-0.2 -9.3,-0.7 -0.2,0 -0.3,-0.2 -0.3,-0.3 -1.2,-5 -1.2,-9.9 0,-15 0,-0.2 0.2,-0.3 0.3,-0.3 3.1,-0.5 6.2,-0.7 9.3,-0.7 3.1,0 6.2,0.2 9.3,0.7 0.2,0 0.3,0.2 0.3,0.3 1.2,5 1.2,9.9 0,15 0,0.2 -0.2,0.3 -0.3,0.3 0,0 0,0 0,0 z"
       style="fill:#555760" /><path
       id="path46"
       inkscape:connector-curvature="0"
       class="st0"
       d="m -272.9,587.7 c 0,1.9 -0.7,3.5 -1.6,3.5 -0.9,0 -1.5,-1.6 -1.5,-3.5 l 0,-14 c 0,-1.9 0.7,-3.5 1.5,-3.5 0.9,0 1.6,1.6 1.6,3.5 l 0,14 0,0 z m 13.9,0 c 0,1.9 -0.7,3.5 -1.5,3.5 -0.9,0 -1.5,-1.6 -1.5,-3.5 l 0,-14 c 0,-1.9 0.7,-3.5 1.5,-3.5 0.9,0 1.5,1.6 1.5,3.5 l 0,14 0,0 z"
       style="fill:#555760" /><path
       id="path48"
       inkscape:connector-curvature="0"
       class="st0"
       d="m -255,641.7 c 0,1.9 -1.6,3.5 -3.5,3.5 l -14,0 c -1.9,0 -3.5,-1.6 -3.5,-3.5 l 0,-14 c 0,-1.9 1.6,-3.5 3.5,-3.5 l 14,0 c 1.9,0 3.5,1.6 3.5,3.5 l 0,14 c 0,0 0,0 0,0 z"
       style="fill:#555760" /><path
       id="path50"
       inkscape:connector-curvature="0"
       class="st0"
       d="m -255.7,689.6 -12.3,9.1 c -0.7,0.5 -1.8,0.5 -2.5,0 l 0,0 c -0.3,-0.2 -0.6,-0.6 -0.6,-0.9 l 0,-18.1 c 0,-0.4 0.2,-0.7 0.5,-0.9 l 0,0 c 0.7,-0.5 1.8,-0.5 2.5,0 l 12.2,9 0.1,0 c 0.8,0.5 0.8,1.3 0.1,1.8 l 0,0 0,0 0,0 z"
       style="fill:#555760" /><path
       id="path52"
       inkscape:connector-curvature="0"
       class="st0"
       d="m -278.4,734 10.4,10.4 -10.4,10.4 c -0.6,0.6 -0.6,1.5 0,2 0.6,0.6 1.5,0.6 2,0 l 10.4,-10.4 10.4,10.4 c 0.6,0.6 1.5,0.6 2,0 0.6,-0.6 0.6,-1.5 0,-2 L -264,744.4 -253.6,734 c 0.6,-0.6 0.6,-1.5 0,-2 -0.6,-0.6 -1.5,-0.6 -2,0 L -266,742.4 -276.4,732 c -0.6,-0.6 -1.5,-0.6 -2,0 -0.6,0.5 -0.6,1.4 0,2 z"
       style="fill:#555760" /><path
       id="path54"
       inkscape:connector-curvature="0"
       class="st1"
       d="m -278.4,790 10.4,10.4 -10.4,10.4 c -0.6,0.6 -0.6,1.5 0,2 0.6,0.6 1.5,0.6 2,0 l 10.4,-10.4 10.4,10.4 c 0.6,0.6 1.5,0.6 2,0 0.6,-0.6 0.6,-1.5 0,-2 L -264,800.4 -253.6,790 c 0.6,-0.6 0.6,-1.5 0,-2 -0.6,-0.6 -1.5,-0.6 -2,0 L -266,798.4 -276.4,788 c -0.6,-0.6 -1.5,-0.6 -2,0 -0.6,0.5 -0.6,1.4 0,2 z"
       style="fill:#ffffff" /><path
       id="path56"
       inkscape:connector-curvature="0"
       class="st0"
       d="m -249,863.7 0,8.1 c 0,0.5 -0.4,0.8 -0.9,0.8 l -31.3,0 c -0.5,0 -0.9,-0.4 -0.9,-0.8 l 0,-8.1 c 0,-0.5 0.4,-0.8 0.9,-0.8 0.5,0 0.9,0.4 0.9,0.8 0,0 0,1.3 0,2.8 0,2.1 0,4.5 0,4.5 l 29.5,0 0,-7.3 c 0,-0.5 0.4,-0.8 0.9,-0.8 0.5,0 0.9,0.3 0.9,0.8 l 0,0 z m -17.4,1.5 c 0.3,0.3 0.6,0.4 0.9,0.3 0.3,0 0.6,-0.1 0.9,-0.4 l 7.9,-7.8 c 0.5,-0.5 0.5,-1.3 0,-1.7 -0.5,-0.5 -1.3,-0.5 -1.8,0 l -5.8,5.8 0,-18.7 -2.5,0 0,18.7 -5.7,-5.7 c -0.5,-0.5 -1.3,-0.5 -1.8,0 -0.5,0.5 -0.5,1.3 0,1.7 l 7.9,7.8 0,0 z"
       style="fill:#555760" /><path
       id="path58"
       inkscape:connector-curvature="0"
       class="st0"
       d="m -265.9,938.7 c -10.5,0 -13.1,-3.6 -13.1,-5.8 l 0,-4.2 0,-4.2 c 0,-2.3 1.9,-4.2 4.3,-4.2 l 4.3,0 c 0,0 1.2,3 4.3,3 3.1,0 4.3,-3 4.3,-3 l 4.3,0 c 2.4,0 4.3,1.9 4.3,4.2 l 0,4.2 0,4.2 c 0.2,2.4 -2.3,5.8 -12.7,5.8 z m -0.1,-20 c -3.9,0 -7,-3.8 -7,-8.5 0,-4.7 3.1,-8.5 7,-8.5 3.9,0 7,3.8 7,8.5 0,4.7 -3.1,8.5 -7,8.5 z m 0,-14.8 c -3,0 -5.4,2.9 -5.4,6.5 0,3.6 2.4,6.5 5.4,6.5 3,0 5.4,-2.9 5.4,-6.5 -0.1,-3.6 -2.5,-6.5 -5.4,-6.5 z"
       style="fill:#555760" /><path
       id="path60"
       inkscape:connector-curvature="0"
       class="st2"
       d="m -250.3,968.7 c 0,-0.1 0,-0.2 0,-0.3 0,-1.2 -0.2,-2.3 -1,-3.3 -0.7,-0.9 -2,-1.2 -3.1,-1.3 -0.1,0 -0.1,0 -0.2,0 0,0 -0.1,0 -0.1,0 -4.6,0.1 -9.2,0 -13.8,-0.1 0,0 -0.1,0 -0.1,0 l -6,0 c 0,0 0,0 -0.1,0 0,0 -0.1,0 -0.1,0 -2.3,0 -4.3,1.3 -4.7,3.7 0,0.1 0,0.2 0,0.3 0,0 0,0.1 0,0.1 -0.2,3 -0.4,6.1 -0.4,9.2 0,1.6 0,3.1 0,4.7 0,1.6 -0.2,3.3 0.7,4.8 0.8,1.3 2.1,1.7 3.4,2 0.1,0 0.1,0 0.2,0 0,0 0,0 0,0 0,0 0.1,0 0.1,0 3,-0.3 5.9,-0.4 8.9,-0.4 0.2,0.1 0.4,0.2 0.6,0.4 0,0 0,0 0.1,0 3.1,1.9 6.3,3.5 9.5,5.1 0.7,0.3 1.3,0.1 1.7,-0.4 0.3,-0.2 0.4,-0.6 0.3,-1 0,-0.1 0,-0.2 -0.1,-0.3 l -1.5,-3.9 1.1,0 c 0.1,0 0.1,0 0.2,0 1.1,0.1 2.1,0.1 3,-0.6 1.7,-1.3 1.7,-3.7 1.8,-5.7 0.1,-2.8 0,-5.5 -0.1,-8.3 -0.2,-1.6 -0.3,-3.1 -0.3,-4.7 l 0,0 z m -2.3,15 c -0.1,0.5 -0.2,1 -0.6,1.4 -0.7,0.5 -1.7,0.2 -2.5,0.2 -0.7,0 -1.4,0 -2,0 -0.2,0 -0.3,0 -0.5,0.1 -0.7,0.1 -1.4,0.7 -1.1,1.6 0.4,1 0.7,1.9 1.1,2.9 -2,-1 -4,-2.1 -6,-3.3 -0.1,-0.1 -0.1,-0.1 -0.2,-0.2 -0.3,-0.2 -0.6,-0.3 -0.9,-0.5 -0.2,-0.3 -0.5,-0.4 -0.9,-0.4 -3.1,0 -6.2,0.1 -9.3,0.4 0,0 0,0 -0.1,0 0,0 -0.1,0 -0.1,0 -0.4,0 -0.7,-0.1 -1,-0.3 -0.2,-0.1 -0.5,-0.5 -0.6,-0.8 0,-0.1 -0.1,-0.2 -0.1,-0.3 0,-0.1 0,-0.2 0,-0.3 -0.1,-5.5 0,-10.9 0.4,-16.4 0.3,-1.1 0.9,-1.6 2.2,-1.6 0,0 0,0 0.1,0 0,0 0,0 0.1,0 l 5.8,0 c 2.7,0 5.5,0.2 8.2,0.3 1.4,0 2.8,-0.1 4.2,-0.1 0.9,0 2.2,-0.2 3,0.4 0.9,0.7 0.7,2.2 0.8,3.2 0,1.5 0.1,3.1 0.1,4.6 0,1.5 0.1,3.1 0.1,4.6 0,0.8 0,1.6 0,2.3 -0.2,0.7 -0.1,1.5 -0.2,2.2 l 0,0 z"
       style="fill:#52565d" /><path
       id="path62"
       inkscape:connector-curvature="0"
       class="st2"
       d="m -253.6,1027.2 -1.9,0 c -0.2,-0.9 -0.6,-1.7 -1,-2.5 l 1.4,-1.4 c 0.6,-0.6 0.6,-1.7 0,-2.3 l -1.2,-1.1 c -0.6,-0.6 -1.7,-0.6 -2.3,0 l -1.4,1.4 c -0.8,-0.5 -1.6,-0.8 -2.5,-1 l 0,-1.9 c 0,-0.9 -0.7,-1.6 -1.6,-1.6 l -1.6,0 c -0.9,0 -1.6,0.7 -1.6,1.6 l 0,1.9 c -0.9,0.2 -1.7,0.6 -2.5,1 l -1.4,-1.4 c -0.6,-0.6 -1.7,-0.6 -2.3,0 l -1.1,1.1 c -0.6,0.6 -0.6,1.7 0,2.3 l 1.4,1.4 c -0.5,0.8 -0.8,1.6 -1,2.5 l -1.9,0 c -0.9,0 -1.6,0.7 -1.6,1.6 l 0,1.6 c 0,0.9 0.7,1.6 1.6,1.6 l 1.9,0 c 0.2,0.9 0.6,1.7 1,2.5 l -1.4,1.4 c -0.6,0.6 -0.6,1.7 0,2.3 l 1.1,1.1 c 0.6,0.6 1.7,0.6 2.3,0 l 1.4,-1.4 c 0.8,0.5 1.6,0.8 2.5,1 l 0,1.9 c 0,0.9 0.7,1.6 1.6,1.6 l 1.6,0 c 0.9,0 1.6,-0.7 1.6,-1.6 l 0,-1.9 c 0.9,-0.2 1.7,-0.6 2.5,-1 l 1.4,1.4 c 0.6,0.6 1.7,0.6 2.3,0 l 1.2,-1.1 c 0.6,-0.6 0.6,-1.7 0,-2.3 l -1.4,-1.4 c 0.5,-0.8 0.8,-1.6 1,-2.5 l 1.9,0 c 0.9,0 1.6,-0.7 1.6,-1.6 l 0,-1.6 c 0,-0.8 -0.7,-1.6 -1.6,-1.6 0,0 0,0 0,0 z m -11.4,9 c -3.6,0 -6.5,-2.9 -6.5,-6.5 0,-3.6 2.9,-6.5 6.5,-6.5 3.6,0 6.5,2.9 6.5,6.5 0,3.6 -2.9,6.5 -6.5,6.5 l 0,0 z"
       style="fill:#52565d" /><path
       id="path64"
       inkscape:connector-curvature="0"
       class="st3"
       d="m -257,1071.2 0,2.1 -13.3,10 c -0.1,0.1 -0.2,0.3 -0.2,0.5 0,0.2 0.1,0.4 0.2,0.5 l 13.3,10 0,2.1 c 0,0.2 -0.1,0.4 -0.3,0.5 -0.2,0.1 -0.4,0.1 -0.6,-0.1 l -16.9,-12.4 c -0.1,-0.1 -0.2,-0.3 -0.2,-0.5 0,-0.2 0.1,-0.3 0.2,-0.5 l 16.9,-12.4 c 0.2,-0.1 0.4,-0.2 0.6,-0.1 0.2,-0.1 0.3,0.1 0.3,0.3 z"
       style="fill:#cbced1" /><path
       id="path66"
       inkscape:connector-curvature="0"
       class="st0"
       d="m -277.6,1135.5 9.7,0 0,9.7 c 0,0.8 0.6,1.4 1.4,1.4 0.8,0 1.4,-0.6 1.4,-1.4 l 0,-9.7 9.7,0 c 0.8,0 1.4,-0.6 1.4,-1.4 0,-0.8 -0.6,-1.4 -1.4,-1.4 l -9.7,0 0,-9.7 c 0,-0.8 -0.6,-1.4 -1.4,-1.4 -0.8,0 -1.4,0.6 -1.4,1.4 l 0,9.7 -9.7,0 c -0.8,0 -1.4,0.6 -1.4,1.4 0,0.8 0.6,1.4 1.4,1.4 0,0 0,0 0,0 z"
       style="fill:#555760" /><circle
       id="path4163"
       class="st0"
       cx="-266.5"
       cy="1180.6"
       r="10.7"
       style="fill:#555760" /><path
       class="st4"
       d="m -254.2,1216.2 4,4 c 0.2,0.2 0.2,0.6 0,0.8 -0.2,0.2 -0.6,0.2 -0.8,0 l -4,-4 -4,4 c -0.2,0.2 -0.6,0.2 -0.8,0 -0.2,-0.2 -0.2,-0.6 0,-0.8 l 4,-4 -4,-4 c -0.2,-0.2 -0.2,-0.6 0,-0.8 0.2,-0.2 0.6,-0.2 0.8,0 l 4,4 4,-4 c 0.2,-0.2 0.6,-0.2 0.8,0 0.2,0.2 0.2,0.6 0,0.8 l -4,4 z m -0.8,22 0,0 -26.2,0 c -1.8,0 -2.3,-1.1 -1.1,-2.4 l 4.6,-5.4 c 1.1,-1.3 3.2,-1.7 4.5,-0.8 1.3,0.9 3.2,0.4 4.1,-1 l 4.6,-7.3 c 0.9,-1.5 2.4,-1.4 3.3,0.1 l 7.9,14.1 c 0.8,1.4 0.1,2.7 -1.7,2.7 z m -22.7,-16.2 c -2.9,0 -5.3,-2.4 -5.3,-5.4 0,-3 2.4,-5.4 5.3,-5.4 2.9,0 5.3,2.4 5.3,5.4 -0.1,3 -2.4,5.4 -5.3,5.4 z"
       id="path3640"
       inkscape:connector-curvature="0"
       style="clip-rule:evenodd;fill:#555760;fill-rule:evenodd" /><path
       class="st4"
       d="m -250.6,1273 -4.1,0 0,4.1 c 0,0.3 -0.3,0.6 -0.6,0.6 -0.3,0 -0.6,-0.3 -0.6,-0.6 l 0,-4.1 -4.1,0 c -0.3,0 -0.6,-0.3 -0.6,-0.6 0,-0.3 0.3,-0.6 0.6,-0.6 l 4.1,0 0,-4.1 c 0,-0.3 0.3,-0.6 0.6,-0.6 0.3,0 0.6,0.3 0.6,0.6 l 0,4.1 4.1,0 c 0.3,0 0.6,0.3 0.6,0.6 0,0.3 -0.3,0.6 -0.6,0.6 z m -4.5,21.1 0,0 -26.2,0 c -1.8,0 -2.3,-1.1 -1.1,-2.4 l 4.6,-5.4 c 1.1,-1.3 3.2,-1.7 4.5,-0.8 1.3,0.9 3.2,0.4 4.1,-1 l 4.6,-7.3 c 0.9,-1.5 2.4,-1.4 3.3,0.1 l 7.9,14.1 c 0.8,1.4 0.1,2.7 -1.7,2.7 z m -22.7,-16.2 c -2.9,0 -5.3,-2.4 -5.3,-5.4 0,-3 2.4,-5.4 5.3,-5.4 2.9,0 5.3,2.4 5.3,5.4 0,3 -2.4,5.4 -5.3,5.4 z"
       id="path3642"
       inkscape:connector-curvature="0"
       style="clip-rule:evenodd;fill:#555760;fill-rule:evenodd" /></g></svg>